<svg id="Layer_1" xmlns="http://www.w3.org/2000/svg" viewBox="5 9 89 64"><style>.st0{fill:#533846}.st1{fill:#e48115}.st2{fill:#ea5040}.st3{fill:#dde2b1}.st4{fill:#cdc7c7}.st5{fill:#ebfcdd}.st6{fill:#d9c642}</style><path class="st0" d="M14.6 40.9h74.2v20.8H14.6V40.9z"/><path class="st0" d="M14.6 25.1h68.1v15.8H14.6V25.1z"/><path class="st0" d="M9.4 30.1h7.1v10.8H9.4V30.1zm11-9.9h5v5.7h-5v-5.7zm5.1-6h10.9v15.2H25.5V14.2zM36.2 9h30.7v5.2H36.2V9z"/><path class="st0" d="M36.2 14.2h32.4v6.7H36.2v-6.7z"/><path class="st0" d="M33.2 18.5H61v13H33.2v-13zM9.6 51.9h5.7v4.9H9.6v-4.9zm-4.4-11h4.2v11H5.2v-11zm83.5 5h5v6h-5v-6zm-17-25.7h6v6.6h-6v-6.6z"/><path class="st0" d="M66.9 14.2h6v6.7h-6v-6.7z"/><path class="st1" d="M52.1 61.7v-4.9H46v-4.9h-9.8v4.9H20.3v5.8h9.9v5H57v-5.9h-4.9z"/><path class="st0" d="M30.2 67.6h26.9V73H30.2v-5.4zm-9.9-5.9h9.9v5.9h-9.9v-5.9zm36.7 0h25.6v5.9H57v-5.9z"/><path class="st2" d="M57 45.7h31.7v6.2H57v-6.2zm0 10.9h25.6v5.1H57v-5.1zm-4.9-4.7H57v4.7h-4.9v-4.7z"/><path class="st3" d="M9.4 40.9h26.8v11H9.4v-11zm10.9-15.8h5.2V30h-5.2v-4.9zm5.2-4.9h10.7v4.9H25.5v-4.9zm10.7-6h15.9v6H36.2v-6z"/><path class="st4" d="M57 35.9h4.9v5H57v-5z"/><path class="st5" d="M72.8 25.1v10.8h-5.9V25.1h5.9v-4.9h-5.9v-6H57v6h-4.9v15.7H57v5h20.7V25.1h-4.9z"/><path class="st4" d="M52.1 25.1H57v10.8h-4.9V25.1z"/><path class="st3" d="M9.6 51.3h15.7v5.5H9.6z"/><path class="st6" d="M19.3 51.9h6v4.9h-6zm-9.9-11h4.9v4.9H9.4zm21.8 0h4.9v4.9h-4.9zm5-5.4h6.3v5.3h-6.3z"/><path class="st6" d="M52.1 40.9v-5H46V20h-9.8v5.1H25.4v5H14.3v5.8h26.8v16h11v-6.2H57v-4.8z"/><path class="st0" d="M31.2 45.8h4.9V54h-4.9z"/></svg>