<svg xmlns="http://www.w3.org/2000/svg" viewBox="0 0 89 64"><path fill="#533846" d="M9.6 31.9h74.2v20.8H9.6z"/><path fill="#533846" d="M9.6 16.1h68.1v15.8H9.6z"/><path fill="#533846" d="M4.4 21.1h7.1v10.8H4.4zm11-9.9h5v5.7h-5zm5.1-6h10.9v15.2H20.5zM31.2 0h30.7v5.2H31.2z"/><path fill="#533846" d="M31.2 5.2h32.4v6.7H31.2z"/><path fill="#533846" d="M28.2 9.5H56v13H28.2zM4.6 42.9h5.7v4.9H4.6zm-4.4-11h4.2v11H.2zm83.5 5h5v6h-5zm-17-25.7h6v6.6h-6z"/><path fill="#533846" d="M61.9 5.2h6v6.7h-6z"/><path fill="#E48115" d="M47.1 52.7v-4.9H41v-4.9h-9.8v4.9H15.3v5.8h9.9v5H52v-5.9z"/><path fill="#533846" d="M25.2 58.6h26.9V64H25.2zm-9.9-5.9h9.9v5.9h-9.9zm36.7 0h25.6v5.9H52z"/><path d="M52 36.7h31.7v6.2H52zm0 10.9h25.6v5.1H52zm-4.9-4.7H52v4.7h-4.9z" fill="#EA5040"/><path fill="#DDE2B1" d="M4.4 31.9h26.8v11H4.4zm10.9-15.8h5.2V21h-5.2zm5.2-4.9h10.7v4.9H20.5zm10.7-6h15.9v6H31.2z"/><path fill="#CDC7C7" d="M52 26.9h4.9v5H52z"/><path fill="#EBFCDD" d="M67.8 16.1v10.8h-5.9V16.1h5.9v-4.9h-5.9v-6H52v6h-4.9v15.7H52v5h20.7V16.1z"/><path fill="#CDC7C7" d="M47.1 16.1H52v10.8h-4.9z"/><g fill="#D9C642"><path d="M47.1 31.9v-5H41V11h-9.8v5.1H20.4v5H9.3v5.8h26.8v16h11v-6.2H52v-4.8z"/><path d="M25.2 37h6v5.9h-6zM4.4 37h4.9v5.9H4.4z"/></g></svg>