<svg xmlns="http://www.w3.org/2000/svg" viewBox="0 0 600 80"><path fill="#F1F2F2" d="M89 63V27.8h-7v-8h7v-7h8V63z"/><path fill="#231F20" d="M96.5 13.3v49.2h-7V27.3h-7v-7h7v-7h7m1-1h-9v7h-7v9h7v35.2h9V12.3z"/><path fill="#F1F2F2" d="M139.1 63V40.9h7v-7h7V20.8h-14v-8h15v7h7.1v15.1h-7.1v7h-7V55h14.1v8z"/><path fill="#231F20" d="M153.6 13.3v7h7v14.1h-7v7h-7v14h14.1v7h-21.1v-21h7v-7h7V20.3h-14.1v-7h14.1m1-1h-16.1v9h14.1v12.1h-7v7h-7v23.1h23.1v-9h-14.1v-12h7v-7h7V19.3h-7v-7z"/><path fill="#F1F2F2" d="M22.5 63v-7h-7V19.8h7v-7h15.1v7h7V56h-7v7H22.5zm14-8V20.8h-13V55h13z"/><path fill="#231F20" d="M37 13.3v7h7v35.2h-7v7H23v-7h14V20.3H23v35.2h-7V20.3h7v-7h14m1-1H22v7h-7v37.2h7v7h16v-7h7V19.3h-7v-7zm-14 9h12v33.2H24V21.3z"/><path fill="#F1F2F2" d="M199 63v-8h14V41.9h-14v-8h14V20.8h-14v-8h15v7h7v15.1h-7v6h7V56h-7v7z"/><path fill="#231F20" d="M213.5 13.3v7h7v14.1h-7v7h7v14.1h-7v7h-14.1v-7h14.1V41.4h-14.1v-7h14.1V20.3h-14.1v-7h14.1m1-1h-16.1v9h14.1v12.1h-14.1v9h14.1v12.1h-14.1v9h16.1v-7h7V40.4h-7v-5h7V19.3h-7v-7z"/><path fill="#F1F2F2" d="M269.5 63V48.9h-14.1V12.8h8.1v28.1h6V26.8h8v14.1h7.1v8h-7.1V63z"/><path fill="#231F20" d="M263 13.3v28.1h7V27.3h7v14.1h7v7h-7v14.1h-7V48.4h-14.1V13.3h7.1m1-1h-9v37.2h14v14.1h9V49.4h7v-9h-7V26.3h-9v14.1h-5V12.3z"/><path fill="#F1F2F2" d="M319 63v-8h14V41.9h-14V12.8h22v8h-14v13.1h7v7h7V56h-7v7z"/><path fill="#231F20" d="M340.5 13.3v7h-14.1v14h7v7h7v14.1h-7v7h-14.1v-7h14.1v-14h-14.1V13.3h21.2m1-1h-23.1v30.1h14.1v12.1h-14.1v9h16.1v-7h7V40.4h-7v-7h-7v-12h14.1v-9.1h-.1z"/><path fill="#F1F2F2" d="M382.5 63v-7h-7V19.8h7v-7h15.1v8h-14.1v13.1h14.1v7h7V56h-7v7h-15.1zm14-8V41.9h-13.1V55h13.1z"/><path fill="#231F20" d="M397 13.3v7h-14v14.1h14v7h7v14.1h-7v7h-14v-7h14V41.4h-14v14.1h-7V20.3h7v-7h14m1-1h-16v7h-7v37.2h7v7h16v-7h7V40.4h-7v-7h-14V21.3h14v-9zm-14 30.1h12v12.1h-12V42.4z"/><path fill="#F1F2F2" d="M439 62.9v-15h7V33.8h7v-13h-14v-8h22.1v22H454v14.1h-7v14z"/><path fill="#231F20" d="M460.6 13.3v21h-7v14.1h-7v14.1h-7V48.4h7V34.3h7v-14h-14.1v-7h21.1m1-1h-23.1v9h14.1v12h-7v14.1h-7v16.1h9V49.4h7V35.3h7v-23z"/><path fill="#F1F2F2" d="M502.5 63v-7h-7V40.9h7v-6h-7V19.8h7v-7h15.1v7h7v15.1h-7v6h7V56h-7v7h-15.1zm14-8V41.9h-13.1V55h13.1zm0-21.1V20.8h-13.1v13.1h13.1z"/><path fill="#231F20" d="M517 13.3v7h7v14.1h-7v7h7v14.1h-7v7h-14v-7h14V41.4h-14v14h-7v-14h7v-7h14V20.3h-14v14.1h-7V20.3h7v-7h14m1-1h-16v7h-7v16.1h7v5h-7v16.1h7v7h16v-7h7V40.4h-7v-5h7V19.3h-7v-7zm-14 9h12v12.1h-12V21.3zm0 21.1h12v12.1h-12V42.4z"/><path fill="#F1F2F2" d="M562.5 63v-8h14.1V41.9h-14.1v-7h-7V19.8h7v-7h15.1v7h7V56h-7v7h-15.1zm14-29.1V20.8h-13.1v13.1h13.1z"/><path fill="#231F20" d="M577 13.3v7h7v35.2h-7v7h-14v-7h14V41.4h-14v-7h14V20.3h-14v14.1h-7V20.3h7v-7h14m1-1h-16v7h-7v16.1h7v7h14v12.1h-14v9h16v-7h7V19.3h-7v-7zm-14 9h12v12.1h-12V21.3z"/></svg>