<svg xmlns="http://www.w3.org/2000/svg" viewBox="0 0 140.7 800.3"><path fill="#63B623" d="M11.2 65.4h120v732.7h-120z"/><path fill="#422937" d="M129.2 67.4v728.7h-116V67.4h116m4-4H9.2v736.7h124V63.4z"/><path fill="#63B623" d="M2 2.3h136.7v62.2H2z"/><path fill="#422937" d="M136.7 4.3v58.2H4V4.3h132.7m4-4H0v66.2h140.7V.3z"/><path fill="#8DE547" d="M15.9 67.4h22.7v728.7H15.9zm30 0h3.3v728.7h-3.3z"/><path fill="#456F19" d="M111.5 67.4h4.2v728.7h-4.2zm9.6 0h8.1v728.7h-8.1zm4.1-63.1h11.5v58.2h-11.5zm-11.4 8.8h6v49h-6z"/><path fill="#456F19" d="M4 56.1h129.3v6.4H4z"/><path fill="#DEFF79" d="M13.2 67.4h10.7v728.7H13.2z"/><path fill="#8DE547" d="M4 8.3h24V56H4z"/><path fill="#8DE547" d="M9.2 4.3h18.7v51.8H9.2zM33.8 9h4.7v47h-4.7z"/><path fill="#DEFF79" d="M9.2 8.7h5.1v47.4H9.2z"/><path fill="#8DE547" d="M14.3 4.3h115V9h-115z"/><path fill="#DEFF79" d="M14.3 4.3h63.2V9H14.3zm70.3 0h5.7V9h-5.7z"/></svg>